<?xml version="1.0" encoding="UTF-8" standalone="no"?>
<!-- Created with Inkscape (http://www.inkscape.org/) -->

<svg
   xmlns:dc="http://purl.org/dc/elements/1.1/"
   xmlns:cc="http://creativecommons.org/ns#"
   xmlns:rdf="http://www.w3.org/1999/02/22-rdf-syntax-ns#"
   xmlns:svg="http://www.w3.org/2000/svg"
   xmlns="http://www.w3.org/2000/svg"
   xmlns:sodipodi="http://sodipodi.sourceforge.net/DTD/sodipodi-0.dtd"
   xmlns:inkscape="http://www.inkscape.org/namespaces/inkscape"
   width="65.597687"
   height="40.337139"
   id="svg2885"
   version="1.1"
   inkscape:version="0.47 r22583"
   sodipodi:docname="ok.svg">
  <defs
     id="defs2887">
    <inkscape:perspective
       sodipodi:type="inkscape:persp3d"
       inkscape:vp_x="0 : 526.18109 : 1"
       inkscape:vp_y="0 : 1000 : 0"
       inkscape:vp_z="744.09448 : 526.18109 : 1"
       inkscape:persp3d-origin="372.04724 : 350.78739 : 1"
       id="perspective2893" />
    <inkscape:perspective
       id="perspective3731"
       inkscape:persp3d-origin="0.5 : 0.33333333 : 1"
       inkscape:vp_z="1 : 0.5 : 1"
       inkscape:vp_y="0 : 1000 : 0"
       inkscape:vp_x="0 : 0.5 : 1"
       sodipodi:type="inkscape:persp3d" />
    <inkscape:perspective
       id="perspective3759"
       inkscape:persp3d-origin="0.5 : 0.33333333 : 1"
       inkscape:vp_z="1 : 0.5 : 1"
       inkscape:vp_y="0 : 1000 : 0"
       inkscape:vp_x="0 : 0.5 : 1"
       sodipodi:type="inkscape:persp3d" />
    <inkscape:perspective
       id="perspective3787"
       inkscape:persp3d-origin="0.5 : 0.33333333 : 1"
       inkscape:vp_z="1 : 0.5 : 1"
       inkscape:vp_y="0 : 1000 : 0"
       inkscape:vp_x="0 : 0.5 : 1"
       sodipodi:type="inkscape:persp3d" />
  </defs>
  <sodipodi:namedview
     id="base"
     pagecolor="#ffffff"
     bordercolor="#666666"
     borderopacity="1.0"
     inkscape:pageopacity="0.0"
     inkscape:pageshadow="2"
     inkscape:zoom="5.6"
     inkscape:cx="40.092167"
     inkscape:cy="15.388015"
     inkscape:document-units="px"
     inkscape:current-layer="layer1"
     showgrid="false"
     inkscape:window-width="1024"
     inkscape:window-height="744"
     inkscape:window-x="0"
     inkscape:window-y="315"
     inkscape:window-maximized="1" />
  <metadata
     id="metadata2890">
    <rdf:RDF>
      <cc:Work
         rdf:about="">
        <dc:format>image/svg+xml</dc:format>
        <dc:type
           rdf:resource="http://purl.org/dc/dcmitype/StillImage" />
      </cc:Work>
    </rdf:RDF>
  </metadata>
  <g
     inkscape:label="Layer 1"
     inkscape:groupmode="layer"
     id="layer1"
     transform="translate(-182.51696,-299.02505)">
    <g
       style="font-size:40px;font-style:normal;font-variant:normal;font-weight:normal;font-stretch:normal;fill:#767676;fill-opacity:1;stroke:none;font-family:Arial;-inkscape-font-specification:Arial"
       id="text2895">
      <path
         d="m 192.7269,321.17607 c 1.83641,-1.57407 3.39954,-2.61251 4.68942,-3.11536 1.3117,-0.50281 2.95136,-0.75422 4.91897,-0.75424 3.0388,2e-5 4.9408,0.85264 5.706,2.55787 0.43721,0.96194 0.65584,2.15342 0.65586,3.57445 -2e-5,2.2518 -0.54657,4.54732 -1.63966,6.88655 -1.07126,2.33924 -2.43764,3.9789 -4.09914,4.91897 -1.6178,0.89634 -3.33397,1.34452 -5.14852,1.34452 -2.66718,0 -4.70035,-0.78704 -6.09951,-2.36111 -0.98381,-1.0931 -1.62873,-2.02223 -1.9348,-2.78741 -0.28421,-0.78703 -0.42632,-1.8692 -0.42631,-3.24652 -1e-5,-2.73275 1.12589,-5.07199 3.37769,-7.01772 m 5.93556,12.69093 c 1.79267,0 3.44326,-1.13683 4.95176,-3.41049 1.53032,-2.29551 2.29549,-4.89709 2.29552,-7.80476 -3e-5,-0.30606 -0.0328,-0.54654 -0.0983,-0.72145 -0.0438,-0.17488 -0.0984,-0.29512 -0.16396,-0.36072 -0.0656,-0.0874 -0.18585,-0.19674 -0.36073,-0.32793 -0.78704,-0.5684 -1.61781,-0.85261 -2.49227,-0.85262 -0.13119,1e-5 -0.31702,0.0219 -0.55748,0.0656 -0.21865,0.0219 -0.5575,0.0656 -1.01659,0.13117 -0.43726,0.0437 -0.91823,0.0875 -1.4429,0.13117 -0.72147,0.0656 -1.31174,0.2077 -1.77083,0.42631 -0.43725,0.19678 -1.00566,0.59029 -1.70524,1.18055 -1.31173,1.11498 -2.25181,2.1425 -2.8202,3.08256 -0.54656,0.9182 -0.81984,1.92387 -0.81983,3.01696 -1e-5,1.59593 0.55747,2.90766 1.67244,3.93517 1.11497,1.00566 2.55786,1.50849 4.3287,1.50849"
         style="font-weight:bold;fill:#414141;fill-opacity:1;font-family:Purisa;-inkscape-font-specification:Purisa Bold"
         id="path2928" />
      <path
         d="m 230.06215,334.09933 c -0.66669,-0.0533 -1.45335,-0.37333 -2.36,-0.96 -0.88002,-0.61333 -1.40002,-0.92 -1.56,-0.92 -0.29335,0 -0.53335,-0.0533 -0.72,-0.16 -0.16002,-0.10666 -0.25335,-0.21333 -0.28,-0.32 l -0.08,-0.16 c -0.37335,-0.26666 -2.10668,-0.88 -5.2,-1.84 l -1.52,-0.48 0.24,2.4 c 0.10666,0.90667 0.15999,1.56 0.16,1.96 -1e-5,1.44 -0.50668,2.16 -1.52,2.16 -1.12001,0 -1.81334,-0.64 -2.08,-1.92 -0.26667,-1.28 -0.49334,-4.29333 -0.68,-9.04 -0.21334,-4.34665 -0.41334,-7.02665 -0.6,-8.04 -0.56001,-2.87998 -0.84,-6.61331 -0.84,-11.2 0,-1.38664 0.47999,-2.07997 1.44,-2.08 0.74666,3e-5 1.27999,0.41336 1.6,1.24 0.15999,0.40003 0.34666,1.5867 0.56,3.56 0.21332,1.97336 0.43999,4.16002 0.68,6.56 0.23999,2.40002 0.43999,4.08002 0.6,5.04 l 0.2,1.28 4.32,-3.8 c 0.21332,-0.18665 0.49332,-0.43998 0.84,-0.76 0.37332,-0.31998 0.65332,-0.55998 0.84,-0.72 0.21332,-0.18665 0.46665,-0.41331 0.76,-0.68 0.31998,-0.26665 0.55998,-0.46665 0.72,-0.6 0.18665,-0.15998 0.39998,-0.33331 0.64,-0.52 0.26665,-0.18665 0.47998,-0.33331 0.64,-0.44 0.15998,-0.10665 0.31998,-0.21331 0.48,-0.32 0.18665,-0.10664 0.34665,-0.17331 0.48,-0.2 0.13331,-0.0533 0.25331,-0.08 0.36,-0.08 0.42665,0.0534 0.77331,0.25336 1.04,0.6 0.29331,0.32002 0.43998,0.66669 0.44,1.04 -2e-5,0.32002 -0.08,0.56002 -0.24,0.72 -0.13335,0.16002 -0.41335,0.42669 -0.84,0.8 -0.42669,0.34669 -0.84002,0.80002 -1.24,1.36 -1.12002,1.57335 -3.50668,3.60001 -7.16,6.08 -1.01334,0.69334 -1.54668,1.21334 -1.6,1.56 -1e-5,0.18668 0.15999,0.34668 0.48,0.48 l 4.84,1.92 0.28,0.16 c 0.21332,0.08 0.42665,0.17334 0.64,0.28 0.23998,0.08 0.53332,0.20001 0.88,0.36 0.34665,0.16001 0.67998,0.33334 1,0.52 0.34665,0.16001 0.70665,0.34667 1.08,0.56 0.39998,0.21334 0.75998,0.42667 1.08,0.64 0.34665,0.18667 0.66665,0.4 0.96,0.64 0.31998,0.24 0.58664,0.46667 0.8,0.68 0.23998,0.21334 0.42664,0.44 0.56,0.68 0.13331,0.21334 0.19998,0.42667 0.2,0.64 -2e-5,0.4 -0.12002,0.72 -0.36,0.96 -0.24002,0.24 -0.56002,0.36 -0.96,0.36"
         style="font-weight:bold;fill:#414141;fill-opacity:1;font-family:Purisa;-inkscape-font-specification:Purisa Bold"
         id="path2930" />
      <path
         d="m 242.23465,315.25933 c -10e-6,-0.13331 -0.08,-0.30665 -0.24,-0.52 -0.16001,-0.21331 -0.24001,-0.51998 -0.24,-0.92 l 0,-0.12 c -1e-5,-0.71998 0.43999,-1.07998 1.32,-1.08 0.21332,2e-5 0.67999,0.0534 1.4,0.16 0.74665,0.08 1.31999,0.13336 1.72,0.16 l 1.92,0.24 -0.16,1.96 c -0.0533,0.77335 -0.40002,2.21335 -1.04,4.32 -0.64002,2.08001 -1.12001,4.01334 -1.44,5.8 -0.18668,1.01334 -0.60001,1.52001 -1.24,1.52 -0.32001,10e-6 -0.57335,-0.10666 -0.76,-0.32 -0.18668,-0.21332 -0.33335,-0.58666 -0.44,-1.12 -0.10668,-0.55999 -0.18668,-1.11999 -0.24,-1.68 -0.0533,-0.55999 -0.13334,-1.38665 -0.24,-2.48 -0.08,-1.11999 -0.17334,-2.13332 -0.28,-3.04 -0.08,-0.47998 -0.12001,-1.02665 -0.12,-1.64 -1e-5,-0.13331 0.0133,-0.34665 0.04,-0.64 0.0267,-0.29331 0.04,-0.49331 0.04,-0.6 m 0.72,19.8 c -0.45334,-0.0533 -0.84001,-0.26667 -1.16,-0.64 -0.32001,-0.4 -0.48001,-0.8 -0.48,-1.2 -1e-5,-0.58666 0.22666,-1.21333 0.68,-1.88 0.47999,-0.69333 0.91999,-1.14666 1.32,-1.36 0.26665,-0.13333 0.65332,-0.19999 1.16,-0.2 1.73332,10e-6 2.59998,0.69334 2.6,2.08 -2e-5,0.85334 -0.21335,1.70667 -0.64,2.56 -0.42668,0.82667 -0.96001,1.24 -1.6,1.24 -0.29335,0 -0.62668,-0.12 -1,-0.36 -0.37335,-0.21333 -0.60001,-0.32 -0.68,-0.32 -0.08,0 -0.14668,0.0267 -0.2,0.08"
         style="font-weight:bold;fill:#414141;fill-opacity:1;font-family:Purisa;-inkscape-font-specification:Purisa Bold"
         id="path2932" />
      <path
         d="m 190.7073,320.22097 c 1.88845,-1.95483 3.49587,-3.24449 4.8223,-3.86898 1.34888,-0.62443 3.035,-0.93668 5.05835,-0.93669 3.12493,10e-6 5.08082,1.0589 5.8677,3.17663 0.4496,1.19465 0.67442,2.67436 0.67445,4.43914 -3e-5,2.79652 -0.56206,5.64735 -1.68612,8.55245 -1.10162,2.90513 -2.50672,4.94143 -4.2153,6.10891 -1.66364,1.11317 -3.42845,1.66976 -5.29441,1.66976 -2.74276,0 -4.83354,-0.97742 -6.27236,-2.93227 -1.01169,-1.35753 -1.67488,-2.51142 -1.98962,-3.46171 -0.29227,-0.97741 -0.4384,-2.32137 -0.43839,-4.03188 -1e-5,-3.39381 1.1578,-6.29894 3.4734,-8.71536 m 6.10374,15.76096 c 1.84348,0 3.54085,-1.41183 5.09209,-4.2355 1.57369,-2.85082 2.36055,-6.08174 2.36056,-9.69279 -1e-5,-0.3801 -0.0337,-0.67875 -0.10112,-0.89597 -0.045,-0.21719 -0.10122,-0.36652 -0.16861,-0.448 -0.0675,-0.10857 -0.19112,-0.24432 -0.37095,-0.40725 -0.80935,-0.70589 -1.66365,-1.05886 -2.5629,-1.05888 -0.1349,2e-5 -0.326,0.0272 -0.57329,0.0815 -0.22483,0.0272 -0.57329,0.0815 -1.04538,0.16291 -0.44965,0.0543 -0.94424,0.10863 -1.48378,0.1629 -0.74192,0.0815 -1.34892,0.25796 -1.82101,0.52944 -0.44966,0.24438 -1.03417,0.73309 -1.75357,1.46615 -1.34889,1.3847 -2.31561,2.66077 -2.90012,3.82824 -0.56206,1.14034 -0.84307,2.38927 -0.84306,3.74679 -1e-5,1.982 0.57327,3.61104 1.71984,4.88712 1.14655,1.24893 2.63034,1.8734 4.45134,1.8734"
         style="font-size:40px;font-style:normal;font-variant:normal;font-weight:bold;font-stretch:normal;fill:#898989;fill-opacity:1;stroke:none;font-family:Purisa;-inkscape-font-specification:Purisa Bold"
         id="path2928-7" />
      <path
         d="m 228.75612,337.02741 c -0.68557,-0.0662 -1.49452,-0.46364 -2.42687,-1.19223 -0.90495,-0.7617 -1.43969,-1.14256 -1.60421,-1.14256 -0.30166,0 -0.54846,-0.0662 -0.7404,-0.1987 -0.16456,-0.13246 -0.26052,-0.26494 -0.28794,-0.39741 l -0.0823,-0.19871 c -0.38393,-0.33117 -2.16637,-1.09288 -5.34735,-2.28511 l -1.56307,-0.59611 0.2468,2.98057 c 0.10968,1.126 0.16452,1.93738 0.16453,2.43414 -1e-5,1.78835 -0.52104,2.68252 -1.56307,2.68252 -1.15174,0 -1.86472,-0.79482 -2.13894,-2.38446 -0.27422,-1.58964 -0.50732,-5.33192 -0.69927,-11.22684 -0.21939,-5.39814 -0.42506,-8.72645 -0.617,-9.98493 -0.57588,-3.57667 -0.8638,-8.21312 -0.8638,-13.90936 0,-1.72208 0.49359,-2.58313 1.4808,-2.58317 0.76783,4e-5 1.31627,0.51335 1.64534,1.53996 0.16453,0.4968 0.35649,1.97054 0.57587,4.42119 0.21936,2.45073 0.45246,5.16636 0.69927,8.14691 0.24679,2.98061 0.45245,5.06701 0.617,6.25922 l 0.20566,1.58964 4.44242,-4.71925 c 0.21937,-0.2318 0.5073,-0.54641 0.86381,-0.94385 0.3839,-0.39738 0.67183,-0.69544 0.8638,-0.89417 0.21936,-0.2318 0.47987,-0.51329 0.78153,-0.8445 0.32905,-0.33115 0.57586,-0.57953 0.74041,-0.74514 0.19193,-0.19868 0.41131,-0.41394 0.65814,-0.64579 0.2742,-0.23181 0.49357,-0.41394 0.65813,-0.54644 0.16451,-0.13245 0.32905,-0.26491 0.49361,-0.39741 0.19193,-0.13244 0.35647,-0.21524 0.4936,-0.24839 0.13708,-0.0662 0.26048,-0.0993 0.37019,-0.0993 0.43875,0.0663 0.79523,0.31465 1.06948,0.74515 0.30162,0.39743 0.45244,0.82796 0.45246,1.29158 -2e-5,0.39743 -0.0823,0.69549 -0.2468,0.89417 -0.13713,0.19873 -0.42506,0.52991 -0.86381,0.99353 -0.43878,0.43056 -0.86381,0.99355 -1.27512,1.68899 -1.15177,1.95396 -3.60606,4.47088 -7.36289,7.5508 -1.04207,0.86106 -1.59052,1.50685 -1.64535,1.93737 -1e-5,0.23184 0.16452,0.43055 0.49361,0.59612 l 4.97715,2.38446 0.28793,0.1987 c 0.21936,0.0994 0.43874,0.21528 0.65814,0.34774 0.24677,0.0994 0.54842,0.24839 0.90493,0.44709 0.35647,0.19871 0.69924,0.41397 1.02834,0.64579 0.35647,0.19871 0.72667,0.43053 1.11059,0.69546 0.41132,0.26495 0.78152,0.52989 1.11061,0.79483 0.35647,0.23182 0.68555,0.49676 0.9872,0.79482 0.32905,0.29805 0.60327,0.57956 0.82268,0.84449 0.24677,0.26495 0.43873,0.54644 0.57586,0.8445 0.13709,0.26495 0.20566,0.52988 0.20567,0.79482 -1e-5,0.49676 -0.12342,0.89417 -0.3702,1.19223 -0.24682,0.29806 -0.57589,0.44709 -0.9872,0.44709"
         style="font-size:40px;font-style:normal;font-variant:normal;font-weight:bold;font-stretch:normal;fill:#898989;fill-opacity:1;stroke:none;font-family:Purisa;-inkscape-font-specification:Purisa Bold"
         id="path2930-7" />
      <path
         d="m 241.27356,313.62988 c -1e-5,-0.16556 -0.0823,-0.38083 -0.24681,-0.64579 -0.16454,-0.26492 -0.24681,-0.64577 -0.24679,-1.14256 l 0,-0.14903 c -2e-5,-0.89415 0.45245,-1.34123 1.35739,-1.34126 0.21937,3e-5 0.69927,0.0663 1.43968,0.19871 0.7678,0.0994 1.3574,0.16562 1.76874,0.1987 l 1.9744,0.29806 -0.16453,2.43414 c -0.0549,0.96043 -0.41135,2.74877 -1.06947,5.36504 -0.65815,2.58318 -1.15174,4.98419 -1.4808,7.20306 -0.19197,1.25847 -0.61701,1.88771 -1.27514,1.8877 -0.32908,1e-5 -0.5896,-0.13246 -0.78154,-0.39741 -0.19197,-0.26493 -0.34279,-0.72858 -0.45247,-1.39094 -0.10971,-0.69545 -0.19197,-1.39092 -0.2468,-2.0864 -0.0548,-0.69546 -0.13712,-1.72209 -0.2468,-3.07993 -0.0823,-1.39093 -0.17825,-2.64939 -0.28794,-3.7754 -0.0823,-0.59609 -0.1234,-1.275 -0.12339,-2.03673 -1e-5,-0.16556 0.0137,-0.4305 0.0411,-0.79482 0.0274,-0.36426 0.0411,-0.61264 0.0411,-0.74514 m 0.7404,24.58976 c -0.46619,-0.0662 -0.86382,-0.33118 -1.19287,-0.79482 -0.32908,-0.49677 -0.49361,-0.99353 -0.4936,-1.49029 -1e-5,-0.72858 0.23308,-1.50684 0.69926,-2.33479 0.4936,-0.86105 0.94606,-1.42404 1.35741,-1.68899 0.27421,-0.16558 0.67183,-0.24837 1.19288,-0.24838 1.78243,10e-6 2.67364,0.86106 2.67367,2.58317 -3e-5,1.05976 -0.2194,2.11952 -0.65814,3.17928 -0.43877,1.02665 -0.98721,1.53996 -1.64534,1.53996 -0.30166,0 -0.64443,-0.14903 -1.02833,-0.44708 -0.38393,-0.26494 -0.61702,-0.39741 -0.69927,-0.39741 -0.0823,0 -0.15084,0.0332 -0.20567,0.0994"
         style="font-size:40px;font-style:normal;font-variant:normal;font-weight:bold;font-stretch:normal;fill:#898989;fill-opacity:1;stroke:none;font-family:Purisa;-inkscape-font-specification:Purisa Bold"
         id="path2932-3" />
    </g>
    <path
       d="m 191.78474,320.83398 c 1.76128,-1.80003 3.26045,-2.98755 4.49754,-3.56257 1.25805,-0.57499 2.83062,-0.8625 4.7177,-0.86251 2.91449,10e-6 4.73866,0.97504 5.47254,2.92506 0.41934,1.10004 0.62902,2.46256 0.62904,4.08758 -2e-5,2.57504 -0.52421,5.20011 -1.57259,7.87514 -1.0274,2.67507 -2.33788,4.55012 -3.93141,5.62513 -1.5516,1.02501 -3.19757,1.53752 -4.93785,1.53752 -2.55805,0 -4.50803,-0.90002 -5.84994,-2.70004 -0.94358,-1.25003 -1.56211,-2.31253 -1.85565,-3.18758 -0.27258,-0.89999 -0.40887,-2.13752 -0.40886,-3.71258 -1e-5,-3.12504 1.07982,-5.80009 3.23948,-8.02515 m 5.69269,14.51279 c 1.71933,0 3.30239,-1.30002 4.74917,-3.90007 1.46771,-2.62505 2.20158,-5.60011 2.20159,-8.92519 -1e-5,-0.35 -0.0314,-0.62499 -0.0943,-0.82501 -0.042,-0.19998 -0.0944,-0.33749 -0.15723,-0.41251 -0.0631,-0.1 -0.17827,-0.22498 -0.34598,-0.375 -0.75485,-0.64999 -1.55162,-0.97502 -2.39032,-0.97503 -0.1258,10e-6 -0.30402,0.0251 -0.53467,0.075 -0.20968,0.0251 -0.53468,0.075 -0.97499,0.15001 -0.41937,0.05 -0.88064,0.10009 -1.38385,0.15 -0.69196,0.075 -1.25807,0.23753 -1.69837,0.48751 -0.41937,0.22503 -0.96452,0.67503 -1.63548,1.35004 -1.25805,1.27504 -2.15967,2.45005 -2.70482,3.52506 -0.5242,1.05005 -0.78628,2.20007 -0.78628,3.45008 0,1.82503 0.53466,3.32507 1.60403,4.50009 1.06933,1.15002 2.4532,1.72504 4.15157,1.72504"
       style="font-size:40px;font-style:normal;font-variant:normal;font-weight:bold;font-stretch:normal;fill:#b6b6b6;fill-opacity:1;stroke:none;font-family:Purisa;-inkscape-font-specification:Purisa Bold"
       id="path2928-7-4" />
    <path
       d="m 225.09434,334.06614 c -0.50887,-0.0486 -1.10931,-0.34048 -1.80134,-0.87555 -0.67169,-0.55938 -1.0686,-0.83907 -1.19072,-0.83907 -0.22391,0 -0.40709,-0.0486 -0.54956,-0.14592 -0.12214,-0.0973 -0.19337,-0.19457 -0.21372,-0.29185 l -0.0611,-0.14593 c -0.28496,-0.24321 -1.60798,-0.80259 -3.96905,-1.67815 l -1.16018,-0.43777 0.18319,2.18888 c 0.0815,0.82691 0.12212,1.42277 0.12212,1.78759 0,1.31333 -0.38674,1.96999 -1.16018,1.96999 -0.85488,0 -1.38408,-0.5837 -1.58762,-1.75111 -0.20354,-1.1674 -0.37655,-3.91566 -0.51903,-8.24478 -0.16284,-3.96429 -0.3155,-6.40854 -0.45797,-7.33275 -0.42744,-2.62664 -0.64115,-6.03156 -0.64115,-10.21478 0,-1.26466 0.36637,-1.897 1.09912,-1.89703 0.56992,3e-5 0.977,0.37699 1.22125,1.13092 0.12212,0.36484 0.2646,1.44713 0.42743,3.24684 0.16282,1.79977 0.33584,3.79408 0.51903,5.98294 0.18318,2.18891 0.33583,3.72112 0.45797,4.59666 l 0.15265,1.1674 3.29737,-3.46573 c 0.16282,-0.17023 0.37654,-0.40128 0.64116,-0.69315 0.28494,-0.29183 0.49866,-0.51072 0.64115,-0.65666 0.16282,-0.17023 0.35617,-0.37695 0.58008,-0.62019 0.24424,-0.24319 0.42744,-0.42559 0.54957,-0.54721 0.14246,-0.14591 0.30529,-0.30399 0.4885,-0.47426 0.20353,-0.17024 0.36635,-0.30399 0.48849,-0.40129 0.12211,-0.0973 0.24424,-0.19455 0.36639,-0.29185 0.14246,-0.0973 0.26458,-0.15807 0.36637,-0.18242 0.10175,-0.0486 0.19334,-0.0729 0.27477,-0.0729 0.32566,0.0487 0.59025,0.23107 0.79382,0.54722 0.22388,0.29187 0.33582,0.60804 0.33583,0.94852 -1e-5,0.29186 -0.0611,0.51075 -0.18318,0.65666 -0.10179,0.14594 -0.3155,0.38915 -0.64116,0.72963 -0.32568,0.31619 -0.64116,0.72964 -0.94645,1.24036 -0.8549,1.43495 -2.67659,3.28333 -5.46508,5.54517 -0.77347,0.63235 -1.18055,1.1066 -1.22125,1.42277 -1e-5,0.17026 0.12212,0.31619 0.36638,0.43778 l 3.69427,1.7511 0.21372,0.14592 c 0.16281,0.073 0.32565,0.1581 0.4885,0.25538 0.18316,0.073 0.40706,0.18241 0.67167,0.32833 0.2646,0.14593 0.51901,0.30401 0.76329,0.47426 0.26458,0.14593 0.53937,0.31617 0.82432,0.51073 0.30531,0.19458 0.58008,0.38914 0.82435,0.58371 0.26459,0.17024 0.50885,0.36481 0.73275,0.5837 0.24424,0.21888 0.44777,0.42562 0.61063,0.62018 0.18317,0.19457 0.32564,0.40129 0.42743,0.62018 0.10175,0.19458 0.15264,0.38914 0.15265,0.5837 -1e-5,0.36482 -0.0916,0.65667 -0.27478,0.87556 -0.18319,0.21889 -0.42744,0.32833 -0.73274,0.32833"
       style="font-size:40px;font-style:normal;font-variant:normal;font-weight:bold;font-stretch:normal;fill:#b6b6b6;fill-opacity:1;stroke:none;font-family:Purisa;-inkscape-font-specification:Purisa Bold"
       id="path2930-7-7" />
    <path
       d="m 241.95042,314.04862 c -1e-5,-0.15879 -0.0642,-0.36525 -0.19253,-0.61935 -0.12836,-0.25407 -0.19254,-0.61932 -0.19252,-1.09577 l 0,-0.14294 c -2e-5,-0.85752 0.35295,-1.2863 1.05887,-1.28632 0.17113,2e-5 0.54549,0.0636 1.12306,0.19056 0.59895,0.0953 1.05888,0.15884 1.37976,0.19057 l 1.54018,0.28586 -0.12834,2.33445 c -0.0428,0.92112 -0.32089,2.63622 -0.83427,5.14535 -0.51341,2.4774 -0.89845,4.7801 -1.15514,6.90811 -0.14975,1.20692 -0.48132,1.8104 -0.99471,1.81039 -0.25671,1e-5 -0.45993,-0.12707 -0.60966,-0.38113 -0.14975,-0.25409 -0.26741,-0.69875 -0.35296,-1.33398 -0.0856,-0.66698 -0.14976,-1.33397 -0.19253,-2.00097 -0.0428,-0.66697 -0.10696,-1.65157 -0.19252,-2.9538 -0.0642,-1.33397 -0.13905,-2.5409 -0.22462,-3.62082 -0.0642,-0.57167 -0.0963,-1.22278 -0.0962,-1.95331 -1e-5,-0.15879 0.0107,-0.41286 0.0321,-0.76228 0.0214,-0.34933 0.0321,-0.58756 0.0321,-0.71462 m 0.57757,23.58282 c -0.36366,-0.0635 -0.67385,-0.31762 -0.93053,-0.76226 -0.25671,-0.47644 -0.38505,-0.95286 -0.38505,-1.42929 0,-0.69873 0.18182,-1.44512 0.54548,-2.23916 0.38505,-0.8258 0.738,-1.36573 1.05889,-1.61984 0.2139,-0.1588 0.52408,-0.23819 0.93054,-0.2382 1.39043,10e-6 2.08564,0.82579 2.08567,2.47739 -3e-5,1.01636 -0.17115,2.03272 -0.5134,3.0491 -0.34228,0.9846 -0.7701,1.47688 -1.2835,1.47688 -0.23532,0 -0.5027,-0.14292 -0.80217,-0.42876 -0.2995,-0.25409 -0.48133,-0.38114 -0.54549,-0.38114 -0.0642,0 -0.11767,0.0319 -0.16044,0.0953"
       style="font-size:40px;font-style:normal;font-variant:normal;font-weight:bold;font-stretch:normal;fill:#b6b6b6;fill-opacity:1;stroke:none;font-family:Purisa;-inkscape-font-specification:Purisa Bold"
       id="path2932-3-7" />
  </g>
</svg>
