<?xml version="1.0" encoding="UTF-8" standalone="no"?>
<!-- Created with Inkscape (http://www.inkscape.org/) -->

<svg
   xmlns:dc="http://purl.org/dc/elements/1.1/"
   xmlns:cc="http://creativecommons.org/ns#"
   xmlns:rdf="http://www.w3.org/1999/02/22-rdf-syntax-ns#"
   xmlns:svg="http://www.w3.org/2000/svg"
   xmlns="http://www.w3.org/2000/svg"
   xmlns:sodipodi="http://sodipodi.sourceforge.net/DTD/sodipodi-0.dtd"
   xmlns:inkscape="http://www.inkscape.org/namespaces/inkscape"
   width="33.691929"
   height="35.431057"
   id="svg2859"
   version="1.1"
   inkscape:version="0.47 r22583"
   sodipodi:docname="New document 2">
  <defs
     id="defs2861">
    <inkscape:perspective
       sodipodi:type="inkscape:persp3d"
       inkscape:vp_x="0 : 526.18109 : 1"
       inkscape:vp_y="0 : 1000 : 0"
       inkscape:vp_z="744.09448 : 526.18109 : 1"
       inkscape:persp3d-origin="372.04724 : 350.78739 : 1"
       id="perspective2867" />
    <inkscape:perspective
       id="perspective2853"
       inkscape:persp3d-origin="0.5 : 0.33333333 : 1"
       inkscape:vp_z="1 : 0.5 : 1"
       inkscape:vp_y="0 : 1000 : 0"
       inkscape:vp_x="0 : 0.5 : 1"
       sodipodi:type="inkscape:persp3d" />
  </defs>
  <sodipodi:namedview
     id="base"
     pagecolor="#ffffff"
     bordercolor="#666666"
     borderopacity="1.0"
     inkscape:pageopacity="0.0"
     inkscape:pageshadow="2"
     inkscape:zoom="0.35"
     inkscape:cx="16.845962"
     inkscape:cy="17.715524"
     inkscape:document-units="px"
     inkscape:current-layer="layer1"
     showgrid="false"
     inkscape:window-width="567"
     inkscape:window-height="483"
     inkscape:window-x="426"
     inkscape:window-y="259"
     inkscape:window-maximized="0" />
  <metadata
     id="metadata2864">
    <rdf:RDF>
      <cc:Work
         rdf:about="">
        <dc:format>image/svg+xml</dc:format>
        <dc:type
           rdf:resource="http://purl.org/dc/dcmitype/StillImage" />
        <dc:title></dc:title>
      </cc:Work>
    </rdf:RDF>
  </metadata>
  <g
     inkscape:label="Layer 1"
     inkscape:groupmode="layer"
     id="layer1"
     transform="translate(-358.15404,-514.64665)">
    <g
       transform="matrix(0.15610237,0,0,0.15610237,280.51541,392.3293)"
       style="font-size:40px;font-style:normal;font-weight:normal;fill:#000000;fill-opacity:1;stroke:none;font-family:Bitstream Vera Sans"
       id="text2856">
      <path
         style="font-size:144px;fill:#666666"
         d="m 605.2418,783.57139 c -4.34322,2e-4 -8.68628,0.22055 -13.02924,0.69248 l -4.6578,23.47771 c -7.0812,1.32191 -13.91055,3.52502 -20.51949,6.5461 l -16.86878,-15.42099 c -7.64765,4.53211 -14.63434,9.91381 -20.96009,16.23915 l 9.18971,20.01614 c -4.90963,5.3819 -9.09534,11.14125 -12.58864,17.37233 l -20.51949,-2.39205 c -3.6822,8.40337 -6.32582,17.21502 -7.93084,26.37331 l 17.56116,9.7563 c -0.47211,3.58786 -0.75536,7.17552 -0.75532,10.76318 -4e-5,3.58787 0.28321,7.17573 0.75532,10.76319 l -17.56116,9.88219 c 1.60502,9.06382 4.24864,17.84445 7.93084,26.24742 l 20.51949,-2.45489 c 3.4933,6.32574 7.67901,12.14814 12.58864,17.43517 l -9.18971,19.9531 c 6.42015,6.32574 13.40685,11.8019 20.96009,16.42827 l 16.86878,-15.54707 c 6.60894,3.02127 13.43829,5.25561 20.51949,6.67198 l 4.6578,23.35179 c 4.34296,0.5668 8.68602,0.8184 13.02924,0.8184 4.34294,0 8.68602,-0.2516 13.02925,-0.8184 l 4.65779,-23.35179 c 7.08096,-1.41637 13.97323,-3.65071 20.58243,-6.67198 l 16.80584,15.54707 c 7.55298,-4.62637 14.53968,-10.10253 20.96009,-16.42827 l -9.18971,-19.9531 c 4.90937,-5.3815 9.09508,-11.20369 12.58864,-17.43517 l 20.58243,2.45489 c 3.68195,-8.40297 6.32556,-17.1836 7.93085,-26.24742 l -17.56116,-9.88219 c 0.47186,-3.58746 0.69215,-7.17532 0.69238,-10.76319 -2.3e-4,-3.58766 -0.22052,-7.17532 -0.69238,-10.76318 l 17.56116,-9.7563 c -1.60529,-9.15829 -4.2489,-17.96994 -7.93085,-26.37331 l -20.58243,2.39205 c -3.49356,-6.23108 -7.67927,-11.95921 -12.58864,-17.24665 l 9.18971,-20.14182 c -6.32601,-6.32534 -13.31268,-11.70704 -20.96009,-16.23915 l -16.80584,15.54687 c -6.6092,-3.11554 -13.50147,-5.35007 -20.58243,-6.67198 l -4.65779,-23.47771 c -4.34323,-0.47193 -8.68631,-0.69228 -13.02925,-0.69248 z m 0,47.83684 c 18.12748,2e-4 33.58005,6.42041 46.3262,19.26062 12.84024,12.84042 19.26044,28.32445 19.26063,46.45209 -1.9e-4,18.03318 -6.42039,33.48579 -19.26063,46.3262 -12.74615,12.74595 -28.19872,19.13474 -46.3262,19.13474 -18.12776,0 -33.61177,-6.38879 -46.45209,-19.13474 -12.74607,-12.84041 -19.13479,-28.29302 -19.13473,-46.3262 -6e-5,-18.12764 6.38866,-33.61167 19.13473,-46.45209 12.84032,-12.84021 28.32433,-19.26042 46.45209,-19.26062 z"
         id="path2861" />
    </g>
  </g>
</svg>
